<?xml version="1.0" encoding="UTF-8"?>
<svg xmlns="http://www.w3.org/2000/svg" viewBox="0 0 48 56" fill="none">
  <title>Ursavus</title>
  <g fill="#6E63F0">
    <circle cx="10" cy="14" r="8.5"/>
    <circle cx="38" cy="14" r="8.5"/>
    <path fill-rule="evenodd" d="M4,24 C4,12 14,8 24,8 C34,8 44,12 44,24 L44,33 C44,45 35,50 24,50 C13,50 4,45 4,33 Z M14,28.5 a2.7,2.7 0 1,0 5.4,0 a2.7,2.7 0 1,0 -5.4,0 z M28.6,28.5 a2.7,2.7 0 1,0 5.4,0 a2.7,2.7 0 1,0 -5.4,0 z M20.2,37 a3.8,3.8 0 1,0 7.6,0 a3.8,3.8 0 1,0 -7.6,0 z"/>
  </g>
</svg>
